<svg width="2440" height="1960" viewBox="0 0 2440 1960" fill="none" xmlns="http://www.w3.org/2000/svg">
<path d="M430 1172H690V1492H430V1172Z" fill="#F5F5F5"/>
<path d="M146 165H406V585H146V165Z" fill="#F5F5F5"/>
<path d="M0 1490H260V1960H0V1490Z" fill="#F5F5F5"/>
<path d="M1830 1182H1940V1502H1830V1182Z" fill="#E5E5E5"/>
<path d="M690 582H800V902H690V582Z" fill="#F5F5F5"/>
<path d="M1720 902H1830V1182H1720V902Z" fill="#F5F5F5"/>
<path d="M2030 902H2140V1182H2030V902Z" fill="#F5F5F5"/>
<path d="M2330 902H2440V1182H2330V902Z" fill="#F5F5F5"/>
<path d="M1830 582H1940V902H1830V582Z" fill="#F5F5F5"/>
<path d="M1720 4.9831e-06H1830V582H1720V4.9831e-06Z" fill="#E5E5E5"/>
<path d="M2030 4.9831e-06H2180V582H2030V4.9831e-06Z" fill="#F5F5F5"/>
<path d="M2030 1502H2155V1960H2030V1502Z" fill="#F5F5F5"/>
<path d="M32 165L32 4.9831e-06L146 0V165H32Z" fill="#F5F5F5"/>
<path d="M1530 582H1720V902H1530V582Z" fill="#F9F9F9"/>
<path d="M406 165V4.9831e-06L520 0V165H406Z" fill="#F5F5F5"/>
<path d="M750 1362V1492H430V1362H750Z" fill="#F5F5F5"/>
</svg>
