<svg width="730" height="996" viewBox="0 0 730 996" fill="none" xmlns="http://www.w3.org/2000/svg">
<path d="M163.991 645.864V586.428H223.988V645.864H163.991Z" fill="#E5E5E5"/>
<path d="M523.02 808.064H587.935V995.184H523.02V808.064Z" fill="#F7F7F7"/>
<path d="M458.106 644.334H523.02V808.064H458.106V644.334Z" fill="#F7F7F7"/>
<path d="M641.046 644.334H705.961V808.064H641.046V644.334Z" fill="#F7F7F7"/>
<path d="M523.02 457.214H587.935V644.334H523.02V457.214Z" fill="#F7F7F7"/>
<path d="M458.106 116.889H523.02V457.214H458.106V116.889Z" fill="#F7F7F7"/>
<path d="M641.046 116.889H729.566V457.214H641.046V116.889Z" fill="#F7F7F7"/>
<path d="M345.981 457.214H458.106V644.334H345.981V457.214Z" fill="#F7F7F7"/>
<path d="M290.984 3.031e-06V107.974L220.988 107.974V0L290.984 3.031e-06Z" fill="#E5E5E5"/>
<path d="M67.3599 108.279H220.988V353.64H67.3599V108.279Z" fill="#F5F5F5"/>
<path d="M0 108.279V11.8871H67.3599V108.279H0Z" fill="#F5F5F5"/>
</svg>
